# Alias OBJ Model File
# Exported from SketchUp, (c) 2000-2012 Trimble Navigation Limited
# File units = millimeters

mtllib base.mtl

g Mesh1 base1 Model

usemtl FrontColor
v 0 2.83461e-29 -21
vt 0 0.826772
vn 0 -1 -0
v 3.60496 2.78243e-31 -18.184
vt -0.141928 0.715904
v 0 2.83461e-29 -0
vt 0 0
f 1/1/1 2/2/1 3/3/1

v 3.8664 0 -18.7819
vt -0.15222 0.739446
f 2/2/1 1/1/1 4/4/1

v 4.2737 1.6535e-30 -19.2919
vt -0.168256 0.759523
f 4/4/1 1/1/1 5/5/1

v 4.7991 5.12605e-30 -19.679
vt -0.188941 0.774764
f 5/5/1 1/1/1 6/6/1

v 5.4068 1.0181e-29 -19.917
vt -0.212866 0.784133
f 6/6/1 1/1/1 7/7/1

v 6.05538 1.64739e-29 -19.9896
vt -0.238401 0.786991
f 7/7/1 1/1/1 8/8/1

v 33 2.83461e-29 -21
vt -1.29921 0.826772
f 8/8/1 1/1/1 9/9/1

vt -1.29921 1.11599e-30
vn 0 0 -1
vt 0 1.11599e-30
v 0 3 -21
vt 0 0.11811
v 33 3 -21
vt -1.29921 0.11811
f 9/10/2 1/11/2 10/12/2 11/13/2 

vt -0.826772 1.11599e-30
vn -1 0 -0
v 0 3 -0
vt -0.826772 0.11811
f 1/14/3 3/11/3 12/12/3 10/15/3 

vn 0 0 1
v 33 2.83461e-29 -0
vt 1.29921 1.11599e-30
v 33 3 -0
vt 1.29921 0.11811
f 3/11/4 13/16/4 14/17/4 12/12/4 

v 14.0438 5.63993e-15 -8.61926
vt -0.552904 0.339341
vt -1.29921 0
f 3/3/1 15/18/1 13/19/1

v 4.71481 2.56893e-29 -15.3497
vt -0.185623 0.604319
f 15/18/1 3/3/1 16/20/1

v 4.20488 1.84433e-29 -15.757
vt -0.165546 0.620355
f 16/20/1 3/3/1 17/21/1

v 3.81774 1.18722e-29 -16.2824
vt -0.150305 0.64104
f 17/21/1 3/3/1 18/22/1

v 3.57977 6.42375e-30 -16.8901
vt -0.140936 0.664965
f 18/22/1 3/3/1 19/23/1

v 3.50719 2.46926e-30 -17.5387
vt -0.138079 0.6905
f 19/23/1 3/3/1 20/24/1

f 3/3/1 2/2/1 20/24/1

vt 0.703393 9.72151e-32
vn 0.999811 0 0.0194654
vt 0.729087 1.09544e-32
vn 0.960705 0 0.277572
v 3.60496 3 -18.184
vt 0.729087 0.11811
v 3.50719 3 -17.5387
vt 0.703393 0.11811
f 20/25/5 2/26/6 21/27/6 22/28/5 

vt 0.712806 1.09544e-32
vt 0.738501 0
vn 0.856129 0 0.516763
v 3.8664 3 -18.7819
vt 0.738501 0.11811
vt 0.712806 0.11811
f 2/29/6 4/30/7 23/31/7 21/32/6 

vt 0.672768 0
vt 0.698462 6.50983e-32
vn 0.693209 0 0.720737
v 4.2737 3 -19.2919
vt 0.698462 0.11811
vt 0.672768 0.11811
f 4/33/7 5/34/8 24/35/8 23/36/7 

vt 0.586006 6.50983e-32
vt 0.6117 2.01813e-31
vn 0.483048 0 0.875594
v 4.7991 3 -19.679
vt 0.6117 0.11811
vt 0.586006 0.11811
f 5/37/8 6/38/9 25/39/9 24/40/8 

vt 0.458433 2.01813e-31
vt 0.484127 4.00827e-31
vn 0.239968 0 0.970781
v 5.4068 3 -19.917
vt 0.484127 0.11811
vt 0.458433 0.11811
f 6/41/9 7/42/10 26/43/10 25/44/9 

vt 0.298744 4.00827e-31
vt 0.324438 6.48578e-31
vn -0.0194654 0 0.999811
v 6.05538 3 -19.9896
vt 0.324438 0.11811
vt 0.298744 0.11811
f 7/45/10 8/46/11 27/47/11 26/48/10 

vt 0.11782 6.48578e-31
v 6.70065 2.35758e-29 -19.8918
vt 0.143514 9.28183e-31
vn -0.277572 0 0.960705
v 6.70065 3 -19.8918
vt 0.143514 0.11811
vt 0.11782 0.11811
f 8/49/11 28/50/12 29/51/12 27/52/11 

vt -0.263805 0.783142
f 8/8/1 9/9/1 28/53/1

v 7.29863 3.10029e-29 -19.6304
vt -0.287348 0.772849
f 28/53/1 9/9/1 30/54/1

v 7.80856 3.82489e-29 -19.2231
vt -0.307424 0.756813
f 30/54/1 9/9/1 31/55/1

v 8.19571 4.482e-29 -18.6977
vt -0.322666 0.736128
f 31/55/1 9/9/1 32/56/1

v 8.43367 5.02684e-29 -18.09
vt -0.332034 0.712203
f 32/56/1 9/9/1 33/57/1

v 8.50625 5.42229e-29 -17.4414
vt -0.334892 0.686668
f 33/57/1 9/9/1 34/58/1

v 14.0297 5.63993e-15 -12.9494
vt -0.552351 0.509818
f 34/58/1 9/9/1 35/59/1

v 14.6319 5.63993e-15 -13.2011
vt -0.576057 0.519727
f 35/59/1 9/9/1 36/60/1

v 15.2786 5.63993e-15 -13.2884
vt -0.601521 0.523164
f 36/60/1 9/9/1 37/61/1

v 15.9259 5.63993e-15 -13.2053
vt -0.627006 0.519892
f 37/61/1 9/9/1 38/62/1

v 16.5297 5.63993e-15 -12.9575
vt -0.650776 0.510137
f 38/62/1 9/9/1 39/63/1

v 17.0488 5.63993e-15 -12.5619
vt -0.671211 0.494561
f 39/63/1 9/9/1 40/64/1

v 17.4477 5.63993e-15 -12.0454
vt -0.686918 0.474228
f 40/64/1 9/9/1 41/65/1

v 17.6994 5.63993e-15 -11.4432
vt -0.696828 0.450521
f 41/65/1 9/9/1 42/66/1

v 17.7867 5.63993e-15 -10.7965
vt -0.700264 0.425058
f 42/66/1 9/9/1 43/67/1

f 13/19/1 43/67/1 9/9/1

v 17.7036 5.63993e-15 -10.1492
vt -0.696993 0.399573
f 13/19/1 44/68/1 43/67/1

v 17.4558 5.63993e-15 -9.54539
vt -0.687238 0.375803
f 13/19/1 45/69/1 44/68/1

v 17.0602 5.63993e-15 -9.02634
vt -0.671662 0.355368
f 13/19/1 46/70/1 45/69/1

v 16.5437 5.63993e-15 -8.62737
vt -0.651328 0.33966
f 13/19/1 47/71/1 46/70/1

v 15.9416 5.63993e-15 -8.37566
vt -0.627622 0.329751
f 13/19/1 48/72/1 47/71/1

v 15.2948 5.63993e-15 -8.28838
vt -0.602159 0.326314
f 13/19/1 49/73/1 48/72/1

v 14.6475 5.63993e-15 -8.37147
vt -0.576674 0.329585
f 13/19/1 50/74/1 49/73/1

f 13/19/1 15/18/1 50/74/1

vt -0.408351 2.22045e-16
vn 0.255685 0 -0.96676
vt -0.382657 2.22045e-16
vn 0.497189 0 -0.867642
v 14.0438 3 -8.61926
vt -0.382657 0.11811
v 14.6475 3 -8.37147
vt -0.408351 0.11811
f 50/75/13 15/76/14 51/77/14 52/78/13 

vt -0.234034 2.22045e-16
v 13.5247 5.63993e-15 -9.01488
vt -0.20834 2.22045e-16
vn 0.70481 0 -0.709396
v 13.5247 3 -9.01488
vt -0.20834 0.11811
vt -0.234034 0.11811
f 15/79/14 53/80/15 54/81/15 51/82/14 

v 5.31279 3.31163e-29 -15.0883
vt -0.209165 0.594026
vt -0.532469 0.354916
f 15/18/1 55/83/1 53/84/1

f 15/18/1 16/20/1 55/83/1

vt 0.0463152 1.30379e-30
vn 0.277572 0 -0.960705
vt 0.0720093 1.01139e-30
vn 0.516763 0 -0.856129
v 4.71481 3 -15.3497
vt 0.0720093 0.11811
v 5.31279 3 -15.0883
vt 0.0463152 0.11811
f 55/85/16 16/86/17 56/87/17 57/88/16 

vt 0.232112 1.01139e-30
vt 0.257806 7.26115e-31
vn 0.720737 0 -0.693209
v 4.20488 3 -15.757
vt 0.257806 0.11811
vt 0.232112 0.11811
f 16/89/17 17/90/18 58/91/18 56/92/17 

vt 0.401216 7.26115e-31
vt 0.42691 4.67409e-31
vn 0.875594 0 -0.483048
v 3.81774 3 -16.2824
vt 0.42691 0.11811
vt 0.401216 0.11811
f 17/93/18 18/94/19 59/95/19 58/96/18 

vt 0.542101 4.67409e-31
vt 0.567796 2.52903e-31
vn 0.970781 0 -0.239968
v 3.57977 3 -16.8901
vt 0.567796 0.11811
vt 0.542101 0.11811
f 18/97/19 19/98/20 60/99/20 59/100/19 

vt 0.645168 2.52903e-31
vt 0.670863 9.72151e-32
vt 0.670863 0.11811
vt 0.645168 0.11811
f 19/101/20 20/102/5 22/103/5 60/104/20 

vn 0 1 -0
vt 0.140936 0.664965
vt 0.138079 0.6905
f 10/1/21 60/105/21 22/106/21

vt 0.150305 0.64104
f 10/1/21 59/107/21 60/105/21

vt 0.165546 0.620355
f 10/1/21 58/108/21 59/107/21

f 12/3/21 58/108/21 10/1/21

vt 0.185623 0.604319
f 58/108/21 12/3/21 56/109/21

vt 0.552904 0.339341
f 56/109/21 12/3/21 51/110/21

vt 1.29921 0
f 51/110/21 12/3/21 14/111/21

vt 0.576674 0.329585
f 51/110/21 14/111/21 52/112/21

v 15.2948 3 -8.28838
vt 0.602159 0.326314
f 52/112/21 14/111/21 61/113/21

v 15.9416 3 -8.37566
vt 0.627622 0.329751
f 61/113/21 14/111/21 62/114/21

v 16.5437 3 -8.62737
vt 0.651328 0.33966
f 62/114/21 14/111/21 63/115/21

v 17.0602 3 -9.02634
vt 0.671662 0.355368
f 63/115/21 14/111/21 64/116/21

v 17.4558 3 -9.54539
vt 0.687238 0.375803
f 64/116/21 14/111/21 65/117/21

v 17.7036 3 -10.1492
vt 0.696993 0.399573
f 65/117/21 14/111/21 66/118/21

v 17.7867 3 -10.7965
vt 0.700264 0.425058
f 66/118/21 14/111/21 67/119/21

vt 1.29921 0.826772
f 11/120/21 67/119/21 14/111/21

v 17.6994 3 -11.4432
vt 0.696828 0.450521
f 11/120/21 68/121/21 67/119/21

v 17.4477 3 -12.0454
vt 0.686918 0.474228
f 11/120/21 69/122/21 68/121/21

v 17.0488 3 -12.5619
vt 0.671211 0.494561
f 11/120/21 70/123/21 69/122/21

v 16.5297 3 -12.9575
vt 0.650776 0.510137
f 11/120/21 71/124/21 70/123/21

v 15.9259 3 -13.2053
vt 0.627006 0.519892
f 11/120/21 72/125/21 71/124/21

v 15.2786 3 -13.2884
vt 0.601521 0.523164
f 11/120/21 73/126/21 72/125/21

v 14.6319 3 -13.2011
vt 0.576057 0.519727
f 11/120/21 74/127/21 73/126/21

v 14.0297 3 -12.9494
vt 0.552351 0.509818
f 11/120/21 75/128/21 74/127/21

v 8.50625 3 -17.4414
vt 0.334892 0.686668
f 11/120/21 76/129/21 75/128/21

v 8.43367 3 -18.09
vt 0.332034 0.712203
f 11/120/21 77/130/21 76/129/21

v 8.19571 3 -18.6977
vt 0.322666 0.736128
f 11/120/21 78/131/21 77/130/21

v 7.80856 3 -19.2231
vt 0.307424 0.756813
f 11/120/21 79/132/21 78/131/21

v 7.29863 3 -19.6304
vt 0.287348 0.772849
f 11/120/21 80/133/21 79/132/21

vt 0.263805 0.783142
f 11/120/21 29/134/21 80/133/21

vt 0.238401 0.786991
f 11/120/21 27/135/21 29/134/21

f 10/1/21 27/135/21 11/120/21

vt 0.212866 0.784133
f 27/135/21 10/1/21 26/136/21

vt 0.188941 0.774764
f 26/136/21 10/1/21 25/137/21

vt 0.168256 0.759523
f 25/137/21 10/1/21 24/138/21

vt 0.15222 0.739446
f 24/138/21 10/1/21 23/139/21

vt 0.141928 0.715904
f 23/139/21 10/1/21 21/140/21

f 21/140/21 10/1/21 22/106/21

vt -0.0720093 9.28183e-31
vt -0.0463152 1.22059e-30
vn -0.516763 0 0.856129
vt -0.0463152 0.11811
vt -0.0720093 0.11811
f 28/141/12 30/142/22 80/143/22 29/144/12 

vt -0.257806 1.22059e-30
vt -0.232112 1.50586e-30
vn -0.720737 0 0.693209
vt -0.232112 0.11811
vt -0.257806 0.11811
f 30/145/22 31/146/23 79/147/23 80/148/22 

vt -0.42691 1.50586e-30
vt -0.401216 1.76457e-30
vn -0.875594 0 0.483048
vt -0.401216 0.11811
vt -0.42691 0.11811
f 31/149/23 32/150/24 78/151/24 79/152/23 

vt -0.567796 1.76457e-30
vt -0.542101 1.97907e-30
vn -0.970781 0 0.239968
vt -0.542101 0.11811
vt -0.567796 0.11811
f 32/153/24 33/154/25 77/155/25 78/156/24 

vt -0.670863 1.97907e-30
vt -0.645168 2.13476e-30
vn -0.999811 0 -0.0194654
vt -0.645168 0.11811
vt -0.670863 0.11811
f 33/157/25 34/158/26 76/159/26 77/160/25 

vt -0.729087 2.13476e-30
v 8.40848 5.64139e-29 -16.7961
vt -0.703393 2.22102e-30
vn -0.960705 0 -0.277572
v 8.40848 3 -16.7961
vt -0.703393 0.11811
vt -0.729087 0.11811
f 34/161/26 81/162/27 82/163/27 76/164/26 

v 13.1257 5.63993e-15 -9.53135
vt -0.516761 0.37525
vt -0.331043 0.661264
f 83/165/1 81/166/1 34/58/1

v 8.14704 5.66922e-29 -16.1981
vt -0.32075 0.637721
f 83/165/1 84/167/1 81/166/1

v 7.73974 5.50387e-29 -15.6882
vt -0.304714 0.617645
f 83/165/1 85/168/1 84/167/1

f 53/84/1 85/168/1 83/165/1

v 7.21434 5.15661e-29 -15.301
vt -0.284029 0.602403
f 53/84/1 86/169/1 85/168/1

v 6.60664 4.65112e-29 -15.0631
vt -0.260104 0.593035
f 53/84/1 87/170/1 86/169/1

v 5.95806 4.02183e-29 -14.9905
vt -0.234569 0.590177
f 53/84/1 88/171/1 87/170/1

f 53/84/1 55/83/1 88/171/1

vt -0.143514 1.5834e-30
vn 0.0194654 0 -0.999811
vt -0.11782 1.30379e-30
vt -0.11782 0.11811
v 5.95806 3 -14.9905
vt -0.143514 0.11811
f 88/172/28 55/173/16 57/174/16 89/175/28 

vt 0.209165 0.594026
vt 0.532469 0.354916
vt 0.234569 0.590177
f 57/176/21 54/177/21 89/178/21

f 57/176/21 51/110/21 54/177/21

f 56/109/21 51/110/21 57/176/21

v 6.60664 3 -15.0631
vt 0.260104 0.593035
f 89/178/21 54/177/21 90/179/21

v 7.21434 3 -15.301
vt 0.284029 0.602403
f 90/179/21 54/177/21 91/180/21

v 7.73974 3 -15.6882
vt 0.304714 0.617645
f 91/180/21 54/177/21 92/181/21

v 13.1257 3 -9.53135
vt 0.516761 0.37525
f 92/181/21 54/177/21 93/182/21

vt -0.0446426 2.22045e-16
vt -0.0189484 2.22045e-16
vn 0.864399 0 -0.502806
vt -0.0189484 0.11811
vt -0.0446426 0.11811
f 53/183/15 83/184/29 93/185/29 54/186/15 

vt 0.146915 2.22045e-16
v 12.874 5.63993e-15 -10.1335
vt 0.172609 2.22045e-16
vn 0.965081 0 -0.26195
v 12.874 3 -10.1335
vt 0.172609 0.11811
vt 0.146915 0.11811
f 83/187/29 94/188/30 95/189/30 93/190/29 

vt -0.506851 0.398956
f 83/165/1 34/58/1 94/191/1

v 12.7867 5.63993e-15 -10.7803
vt -0.503415 0.42442
f 94/191/1 34/58/1 96/192/1

v 12.8698 5.63993e-15 -11.4276
vt -0.506686 0.449905
f 34/58/1 97/193/1 96/192/1

v 13.1176 5.63993e-15 -12.0313
vt -0.516442 0.473675
f 34/58/1 98/194/1 97/193/1

v 13.5132 5.63993e-15 -12.5504
vt -0.532017 0.49411
f 34/58/1 99/195/1 98/194/1

f 34/58/1 35/59/1 99/195/1

vt 0.72309 2.22045e-16
vn 0.709396 0 0.70481
vt 0.748784 2.22045e-16
vn 0.502806 0 0.864399
vt 0.748784 0.11811
v 13.5132 3 -12.5504
vt 0.72309 0.11811
f 99/196/31 35/197/32 75/198/32 100/199/31 

vt 0.706243 2.22045e-16
vt 0.731937 2.22045e-16
vn 0.26195 0 0.965081
vt 0.731937 0.11811
vt 0.706243 0.11811
f 35/200/32 36/201/33 74/202/33 75/203/32 

vt 0.640391 2.22045e-16
vt 0.666085 2.22045e-16
vn 0.00324285 0 0.999995
vt 0.666085 0.11811
vt 0.640391 0.11811
f 36/204/33 37/205/34 73/206/34 74/207/33 

vt 0.530022 2.22045e-16
vt 0.555716 2.22045e-16
vn -0.255685 0 0.96676
vt 0.555716 0.11811
vt 0.530022 0.11811
f 37/208/34 38/209/35 72/210/35 73/211/34 

vt 0.382657 2.22045e-16
vt 0.408351 2.22045e-16
vn -0.497189 0 0.867642
vt 0.408351 0.11811
vt 0.382657 0.11811
f 38/212/35 39/213/36 71/214/36 72/215/35 

vt 0.20834 2.22045e-16
vt 0.234034 2.22045e-16
vn -0.70481 0 0.709396
vt 0.234034 0.11811
vt 0.20834 0.11811
f 39/216/36 40/217/37 70/218/37 71/219/36 

vt 0.0189484 2.22045e-16
vt 0.0446426 2.22045e-16
vn -0.864399 0 0.502806
vt 0.0446426 0.11811
vt 0.0189484 0.11811
f 40/220/37 41/221/38 69/222/38 70/223/37 

vt -0.172609 2.22045e-16
vt -0.146915 2.22045e-16
vn -0.965081 0 0.26195
vt -0.146915 0.11811
vt -0.172609 0.11811
f 41/224/38 42/225/39 68/226/39 69/227/38 

vt -0.35328 2.22045e-16
vt -0.327586 2.22045e-16
vn -0.999995 0 0.00324285
vt -0.327586 0.11811
vt -0.35328 0.11811
f 42/228/39 43/229/40 67/230/40 68/231/39 

vt -0.51075 2.22045e-16
vt -0.485056 2.22045e-16
vn -0.96676 0 -0.255685
vt -0.485056 0.11811
vt -0.51075 0.11811
f 43/232/40 44/233/41 66/234/41 67/235/40 

vt -0.634289 2.22045e-16
vt -0.608595 2.22045e-16
vn -0.867642 0 -0.497189
vt -0.608595 0.11811
vt -0.634289 0.11811
f 44/236/41 45/237/42 65/238/42 66/239/41 

vt -0.715478 2.22045e-16
vt -0.689784 2.22045e-16
vn -0.709396 0 -0.70481
vt -0.689784 0.11811
vt -0.715478 0.11811
f 45/240/42 46/241/43 64/242/43 65/243/42 

vt -0.748784 2.22045e-16
vt -0.72309 2.22045e-16
vn -0.502806 0 -0.864399
vt -0.72309 0.11811
vt -0.748784 0.11811
f 46/244/43 47/245/44 63/246/44 64/247/43 

vt -0.731937 2.22045e-16
vt -0.706243 2.22045e-16
vn -0.26195 0 -0.965081
vt -0.706243 0.11811
vt -0.731937 0.11811
f 47/248/44 48/249/45 62/250/45 63/251/44 

vt -0.666085 2.22045e-16
vt -0.640391 2.22045e-16
vn -0.00324285 0 -0.999995
vt -0.640391 0.11811
vt -0.666085 0.11811
f 48/252/45 49/253/46 61/254/46 62/255/45 

vt -0.555716 2.22045e-16
vt -0.530022 2.22045e-16
vt -0.530022 0.11811
vt -0.555716 0.11811
f 49/256/46 50/257/13 52/258/13 61/259/46 

vt 0.532017 0.49411
f 75/128/21 76/129/21 100/260/21

v 13.1176 3 -12.0313
vt 0.516442 0.473675
f 100/260/21 76/129/21 101/261/21

v 12.8698 3 -11.4276
vt 0.506686 0.449905
f 101/261/21 76/129/21 102/262/21

v 12.7867 3 -10.7803
vt 0.503415 0.42442
f 102/262/21 76/129/21 103/263/21

vt 0.506851 0.398956
f 76/129/21 95/264/21 103/263/21

f 76/129/21 93/182/21 95/264/21

vt 0.331043 0.661264
f 82/265/21 93/182/21 76/129/21

v 8.14704 3 -16.1981
vt 0.32075 0.637721
f 104/266/21 93/182/21 82/265/21

f 92/181/21 93/182/21 104/266/21

vt -0.698462 2.23198e-30
vn -0.856129 0 -0.516763
vt -0.672768 2.16688e-30
vn -0.693209 0 -0.720737
vt -0.672768 0.11811
vt -0.698462 0.11811
f 84/267/47 85/268/48 92/269/48 104/270/47 

vt -0.6117 2.16688e-30
vt -0.586006 2.03016e-30
vn -0.483048 0 -0.875594
vt -0.586006 0.11811
vt -0.6117 0.11811
f 85/271/48 86/272/49 91/273/49 92/274/48 

vt -0.484127 2.03016e-30
vt -0.458433 1.83115e-30
vn -0.239968 0 -0.970781
vt -0.458433 0.11811
vt -0.484127 0.11811
f 86/275/49 87/276/50 90/277/50 91/278/49 

vt -0.324438 1.83115e-30
vt -0.298744 1.5834e-30
vt -0.298744 0.11811
vt -0.324438 0.11811
f 87/279/50 88/280/28 89/281/28 90/282/50 

vt -0.738501 2.22102e-30
vt -0.712806 2.23198e-30
vt -0.712806 0.11811
vt -0.738501 0.11811
f 81/283/27 84/284/47 104/285/47 82/286/27 

vt 0.327586 2.22045e-16
vt 0.35328 2.22045e-16
vn 0.999995 0 -0.00324285
vt 0.35328 0.11811
vt 0.327586 0.11811
f 94/287/30 96/288/51 103/289/51 95/290/30 

vt 0.485056 2.22045e-16
vt 0.51075 2.22045e-16
vn 0.96676 0 0.255685
vt 0.51075 0.11811
vt 0.485056 0.11811
f 96/291/51 97/292/52 102/293/52 103/294/51 

vt 0.608595 2.22045e-16
vt 0.634289 2.22045e-16
vn 0.867642 0 0.497189
vt 0.634289 0.11811
vt 0.608595 0.11811
f 97/295/52 98/296/53 101/297/53 102/298/52 

vt 0.689784 2.22045e-16
vt 0.715478 2.22045e-16
vt 0.715478 0.11811
vt 0.689784 0.11811
f 98/299/53 99/300/31 100/301/31 101/302/53 

vn 1 0 -0
vt 0.826772 1.11599e-30
vt 0.826772 0.11811
f 13/11/54 9/303/54 11/304/54 14/12/54 

